<mxfile host="app.diagrams.net" modified="2024-03-20T04:20:03.285Z" agent="Mozilla/5.0 (Windows NT 10.0; Win64; x64) AppleWebKit/537.36 (KHTML, like Gecko) Chrome/122.0.0.0 Safari/537.36" version="24.0.7" etag="x2Lg_o7WNwBhfg8g6q8J" type="github">
  <diagram name="Page-1" id="OhlNOYyIRIWY94WAg-rn">
    <mxGraphModel>
      <root>
        <mxCell id="0" />
        <mxCell id="1" parent="0" />
      </root>
    </mxGraphModel>
  </diagram>
</mxfile>
